<svg width="1526" height="1825" viewBox="0 0 1526 1825" fill="none" xmlns="http://www.w3.org/2000/svg">
<g clip-path="url(#clip0_1043_55)">
<mask id="mask0_1043_55" style="mask-type:luminance" maskUnits="userSpaceOnUse" x="-1177" y="0" width="2703" height="1825">
<path d="M1526 0H-1177V1825H1526V0Z" fill="white"/>
</mask>
<g mask="url(#mask0_1043_55)">
<path d="M1526 0H-1177V1825H1526V0Z" fill="#F6F6F6"/>
<path d="M926.18 1387.12H618.92L618.97 1235.66L618.92 978.934H926.18V1387.12Z" fill="#FFAFA1"/>
<path d="M25.5 1824L85 1567.5C113.6 1465.6 172.77 1383.12 270.5 1359.17L502.75 1302.1C570.27 1285.52 618.09 1290.47 617.92 1216.87V1208H659.02C664.26 1208 669.46 1208.92 674.39 1210.73C680.25 1212.85 685.64 1216.11 690.23 1220.32L769.21 1292.6L855.61 1219.25C859.9 1215.57 864.81 1212.69 870.12 1210.73C875.05 1208.94 880.25 1208.02 885.49 1208H927.61V1216.87C927.61 1290.38 975.22 1285.39 1042.77 1302.1L1275.02 1359.17C1372.77 1383.16 1450.8 1460.94 1479.42 1562.84L1522.5 1824H25.5Z" fill="black"/>
<path d="M963.43 837.481L955.92 993.776C981.79 988.019 1006.32 957.581 1013.6 931.884L1029.09 876.427C1030.95 868.224 1030.58 859.666 1028 851.656C1025.45 843.648 1020.79 836.486 1014.52 830.92C1010.75 827.919 1006.44 825.705 1001.83 824.409C997.22 823.11 992.39 822.759 987.63 823.37C982.88 823.981 978.29 825.544 974.13 827.969C969.99 830.39 966.37 833.626 963.47 837.481H963.43Z" fill="#FFAFA1"/>
<path d="M583.89 837.481L591.67 993.776C564.92 988.019 539.56 957.581 532.05 931.884L516.03 876.427C514.13 868.211 514.54 859.647 517.21 851.639C519.89 843.628 524.73 836.471 531.22 830.92C535.11 827.919 539.57 825.705 544.34 824.409C549.11 823.11 554.1 822.759 559.02 823.37C563.94 823.981 568.68 825.544 572.96 827.969C577.25 830.39 581 833.626 583.98 837.481H583.89Z" fill="#FFAFA1"/>
<path d="M1001.11 826.061L994.18 862.019C992.94 868.51 991 876.412 988.6 885.293C967.49 963.359 907.94 1119.15 907.94 1119.15C896.76 1145.77 877.95 1168.5 853.86 1184.48C829.77 1200.47 801.49 1209 772.55 1209C743.62 1209 715.33 1200.47 691.25 1184.48C667.16 1168.5 648.34 1145.77 637.17 1119.15C637.17 1119.15 577.61 963.317 556.5 885.293C554.1 876.412 552.22 868.552 550.93 862.019L544 826.19C516.6 684.834 621.41 550.27 765.57 546H772.55H779.53C923.61 550.27 1028.52 684.834 1001.11 826.061Z" fill="#FFAFA1"/>
<path d="M1005.45 772.947C1001.86 652.85 908.23 549.619 785.29 546H778.52H772.61H766.74H759.94C636.73 549.619 543.34 652.85 539.7 772.947C539.15 796.332 542.03 819.676 548.26 842.235L564.4 902.239H591.9L584.36 885.204C566.57 844.769 565.6 798.972 581.66 757.826C587.53 742.375 591.33 726.225 592.97 709.789L594.77 693.691C597.38 683.694 602.43 674.491 609.48 666.896C616.52 659.304 625.34 653.552 635.15 650.156C644.96 646.756 655.46 645.816 665.72 647.414C675.99 649.015 685.69 653.104 693.99 659.324C716.54 676.29 744.05 685.468 772.33 685.468C800.61 685.468 828.12 676.29 850.68 659.324C861.56 651.044 874.88 646.554 888.58 646.549C902.61 646.507 916.25 651.108 927.36 659.628C938.47 668.148 946.43 680.102 949.95 693.607L951.7 709.704C953.36 726.138 957.18 742.285 963.05 757.742C979.09 798.89 978.12 844.68 960.35 885.12L952.82 902.155H980.3L996.46 842.149C1002.8 819.634 1005.82 796.325 1005.45 772.947Z" fill="#7C4F40"/>
<path d="M981 899.5L930.94 1088.54C921.16 1123.23 900.4 1153.76 871.81 1175.5C843.22 1197.24 808.36 1209 772.52 1209C736.68 1209 701.82 1197.24 673.23 1175.5C644.64 1153.76 623.89 1123.23 614.11 1088.54L563 897L591.5 901L628.66 985.483C641.07 1020.34 686.76 1017.84 709.98 1005.18L731.45 993.43C744.01 986.587 758.07 983.004 772.35 983.004C786.63 983.004 800.69 986.587 813.25 993.43L834.72 1005.18C857.95 1017.84 903.63 1020.34 916.04 985.483L953 901.5L981 899.5Z" fill="#7C4F40"/>
<path d="M934.76 786.372L913.111 783.403L911.31 783.015L896.56 780.605C883.29 778.421 869.81 777.973 856.43 779.272C845.66 780.353 835.34 784.212 826.48 790.476C817.63 796.74 810.53 805.196 805.87 815.027C804.51 817.862 802.22 820.135 799.37 821.454C796.53 822.773 793.32 823.057 790.3 822.256C780.33 819.487 769.8 819.487 759.84 822.256C756.81 823.057 753.6 822.773 750.76 821.454C747.92 820.135 745.62 817.862 744.27 815.027C739.61 805.196 732.51 796.74 723.65 790.476C714.79 784.212 704.48 780.353 693.71 779.272C680.33 777.973 666.84 778.421 653.58 780.605L638.82 783.015L637.03 783.403L615.29 786.327C607.53 787.257 600.45 791.233 595.6 797.391C590.74 803.55 588.5 811.39 589.37 819.2C589.64 821.39 590.25 823.522 591.17 825.526C595.72 834.986 599.71 844.714 603.1 854.654C604.86 859.898 607.06 864.982 609.69 869.843C614.87 879.551 621.84 888.182 630.22 895.272C638.63 902.721 648.55 908.236 659.29 911.432C670.03 914.626 681.34 915.425 692.42 913.772C706.42 911.662 719.43 905.262 729.68 895.446C739.93 885.629 746.92 872.871 749.7 858.914C750.25 855.814 750.61 852.679 750.77 849.535C750.88 846.542 751.96 843.667 753.83 841.339C755.7 839.014 758.28 837.359 761.17 836.626C770.23 834.39 779.69 834.39 788.76 836.626C791.64 837.359 794.22 839.014 796.09 841.339C797.97 843.667 799.04 846.542 799.15 849.535C799.31 852.679 799.67 855.814 800.22 858.914C803.01 872.864 810.01 885.612 820.25 895.421C830.51 905.227 843.51 911.622 857.5 913.73C868.59 915.402 879.91 914.616 890.67 911.427C901.43 908.238 911.37 902.726 919.78 895.272C928.17 888.224 935.151 879.637 940.361 869.972C942.991 865.111 945.19 860.029 946.95 854.785C950.34 844.842 954.33 835.117 958.89 825.655C959.81 823.651 960.4 821.518 960.67 819.329C961.57 811.504 959.34 803.642 954.48 797.465C949.62 791.287 942.53 787.299 934.76 786.372ZM739.09 856.549C736.79 868.129 730.99 878.715 722.48 886.861C713.97 895.008 703.18 900.319 691.57 902.071C682.37 903.419 673 902.744 664.09 900.092C655.19 897.44 646.96 892.873 639.98 886.71C633 880.862 627.2 873.737 622.86 865.712C618.6 857.649 615.71 848.922 614.31 839.897C613.85 837.138 613.68 834.343 613.8 831.55C614.22 822.352 617.77 813.58 623.85 806.695C629.93 799.812 638.18 795.236 647.21 793.729L659.44 791.75C670.45 789.932 681.66 789.556 692.76 790.632C700.05 791.342 707.1 793.596 713.45 797.245C719.81 800.894 725.33 805.854 729.64 811.801C732.93 816.447 735.22 821.739 736.36 827.332C737.3 831.637 738.36 837.789 739.18 842.477C739.97 847.138 739.94 851.9 739.09 856.549ZM936.43 831.637C936.54 834.427 936.37 837.225 935.91 839.983C934.51 849.008 931.621 857.734 927.361 865.798C923.031 873.824 917.22 880.949 910.24 886.794C903.26 892.959 895.03 897.526 886.13 900.178C877.22 902.83 867.85 903.503 858.65 902.155C847.04 900.403 836.25 895.094 827.74 886.948C819.24 878.801 813.44 868.215 811.13 856.633C810.31 851.979 810.31 847.217 811.13 842.564C811.9 837.873 813.01 831.637 813.95 827.419C815.09 821.825 817.37 816.533 820.67 811.885C824.98 805.96 830.5 801.02 836.85 797.386C843.19 793.754 850.23 791.51 857.5 790.803C868.61 789.729 879.81 790.105 890.82 791.921L903.06 793.9C912.09 795.406 920.33 799.986 926.41 806.868C932.49 813.75 936.04 822.523 936.47 831.721L936.43 831.637Z" fill="white"/>
<path d="M1243.35 1303.01L751.56 1797.35L748.82 1800.09L749.63 1800.26H582.52L581.75 1800.09L584.11 1797.7L584.45 1797.35L1076.32 1303.01H1243.35Z" fill="#F6F6F6"/>
<path d="M1332.09 1816.5C1329.44 1809.18 1326.73 1801.91 1323.84 1794.72C1278.84 1683.47 1200.91 1588.45 1100.35 1522.3C999.8 1456.15 881.4 1421.98 760.88 1424.35C640.35 1426.71 523.39 1465.49 425.54 1535.53C327.69 1605.57 253.57 1703.56 213.02 1816.5C212.04 1819.34 211.01 1822.19 210.07 1825H319.2C320.44 1822.15 321.68 1819.3 322.96 1816.5C360.24 1732.55 420.51 1660.73 496.88 1609.26C573.25 1557.78 662.65 1528.72 754.84 1525.4C847.03 1522.07 938.3 1544.62 1018.21 1590.47C1098.12 1636.31 1163.47 1703.6 1206.75 1784.65C1212.35 1795.02 1217.56 1805.65 1222.32 1816.5C1223.6 1819.34 1224.84 1822.19 1226.03 1825H1335.04L1332.09 1816.5Z" fill="#CBCBCB"/>
<path d="M415.74 1770.9C389.23 1780.27 361.05 1785.4 335.02 1796.95C334.25 1797.29 317.87 1816.83 307.32 1821.19C303.42 1822.66 299.46 1823.94 295.44 1825H137.87L138.13 1819.99C138.32 1817.92 138.32 1815.83 138.13 1813.75L135.98 1793.65C135.65 1790.95 135.65 1788.23 135.98 1785.53C136.51 1780.59 138.12 1775.83 140.69 1771.59C143.26 1767.34 146.73 1763.7 150.86 1760.94H151.12L159.01 1755.51C169.33 1748.34 177.66 1738.69 183.24 1727.45L190.92 1711.8C192.74 1707.28 195.51 1703.21 199.04 1699.85C202.57 1696.48 206.77 1693.91 211.38 1692.3H212.02L214.47 1691.61L224.93 1688.62C235.3 1685.58 244.66 1679.82 252.04 1671.94L258.38 1665.27C262.01 1661.36 266.5 1658.36 271.49 1656.49C276.49 1654.62 281.85 1653.93 287.16 1654.49C289.98 1654.8 292.74 1655.46 295.39 1656.46C298.03 1657.44 300.54 1658.75 302.86 1660.35L338.58 1678.87C348.69 1684.2 357.47 1691.71 364.31 1700.85L415.74 1770.9Z" fill="#FFAFA1"/>
<path d="M1438.83 1823.12L1438.34 1825H1206.51L1203.68 1824.06C1192.9 1820.35 1170.03 1798.94 1159.1 1795.57L1208.91 1730.44C1215.82 1721.33 1224.67 1713.84 1234.85 1708.52L1270.83 1690.05C1273.19 1688.46 1275.71 1687.15 1278.39 1686.17C1284.78 1683.78 1291.77 1683.34 1298.41 1684.91C1305.05 1686.47 1311.07 1689.98 1315.68 1694.96L1322.08 1701.61C1329.53 1709.34 1338.93 1714.96 1349.31 1717.9L1359.84 1720.89L1362.32 1721.57H1362.96C1367.59 1723.18 1371.81 1725.75 1375.35 1729.11C1378.92 1732.46 1381.69 1736.52 1383.53 1741.02L1391.31 1756.63C1396.88 1767.85 1405.31 1777.48 1415.72 1784.61L1423.62 1790.03H1423.87C1428.03 1792.79 1431.52 1796.42 1434.1 1800.65C1436.68 1804.89 1438.29 1809.63 1438.83 1814.55C1439.21 1817.39 1439.21 1820.28 1438.83 1823.12Z" fill="#FFAFA1"/>
<path d="M1553 1825L-6 1824.7L90.72 1821.84C107.37 1821.33 123.98 1820.4 140.57 1819.07C173.84 1816.4 206.94 1812.01 239.75 1805.92C253.26 1803.45 266.74 1800.6 280.19 1797.39C320.74 1788.11 360.65 1776.31 399.68 1762.05L400.33 1761.79C413.55 1756.95 426.69 1751.83 439.74 1746.43C447.56 1743.21 455.35 1739.88 463.11 1736.44L464.93 1735.67C488.27 1725.37 511.87 1716.24 535.73 1708.27L539.35 1707.07L544.87 1705.24C548.62 1704 552.42 1702.81 556.17 1701.7C567.67 1698.11 579.33 1694.81 591.14 1691.79C717.7 1658.91 850.5 1657.45 977.77 1687.53C1005.03 1693.95 1031.94 1701.77 1058.41 1710.96C1069.64 1714.83 1080.84 1718.98 1091.99 1723.42C1095.95 1724.96 1099.92 1726.54 1103.86 1728.2L1145.59 1745.27C1163.67 1752.7 1181.91 1759.61 1200.27 1766.02C1213.59 1770.62 1226.96 1774.89 1240.38 1778.82C1264.32 1786.02 1288.44 1792.29 1312.76 1797.64C1323.71 1800.06 1334.72 1802.28 1345.72 1804.3C1370.91 1808.97 1396.2 1812.62 1421.62 1815.27C1434.19 1816.59 1446.84 1817.66 1459.46 1818.51H1463.05L1553 1825Z" fill="white"/>
<path d="M801.8 1032.89C797.15 1031.33 792.27 1030.67 787.39 1030.94C778.31 1031.4 769.27 1031.4 760.2 1030.94C755.32 1030.67 750.43 1031.33 745.78 1032.89L703.17 1047.98L711.08 1051.92C730.79 1061.14 752.19 1065.78 773.79 1065.51C795.39 1065.78 816.8 1061.14 836.51 1051.92L844.41 1047.98L801.8 1032.89Z" fill="#FFAFA1"/>
</g>
</g>
<defs>
<clipPath id="clip0_1043_55">
<rect width="1526" height="1825" fill="white"/>
</clipPath>
</defs>
</svg>
